<?xml version="1.0" standalone="no"?>
<!DOCTYPE svg PUBLIC "-//W3C//DTD SVG 20010904//EN"
 "http://www.w3.org/TR/2001/REC-SVG-20010904/DTD/svg10.dtd">
<svg version="1.0" xmlns="http://www.w3.org/2000/svg"
 width="699.000000pt" height="699.000000pt" viewBox="0 0 699.000000 699.000000"
 preserveAspectRatio="xMidYMid meet">
<metadata>
Created by potrace 1.11, written by Peter Selinger 2001-2013
</metadata>
<g transform="translate(0.000000,699.000000) scale(0.100000,-0.100000)"
fill="#000000" stroke="none">
<path d="M1505 6200 c-177 -46 -312 -172 -377 -351 l-23 -64 -3 -1945 c-2
-1913 -2 -1946 18 -2017 48 -174 175 -311 347 -376 58 -22 59 -22 1050 -25
l992 -3 5 -27 c6 -30 12 -75 21 -172 4 -36 8 -76 10 -90 2 -14 6 -53 10 -88 9
-85 19 -115 49 -155 32 -42 89 -66 148 -62 24 2 158 47 307 103 304 116 287
103 380 282 32 63 70 135 83 160 l23 45 135 5 c139 5 174 14 212 57 45 49 48
77 48 394 l0 301 86 167 c48 91 114 218 147 281 94 180 178 343 257 495 40 77
94 181 120 230 283 537 350 673 350 713 0 84 -44 135 -180 209 -30 16 -142 78
-248 137 -223 124 -249 136 -297 136 -39 0 -101 -27 -126 -56 -9 -11 -37 -57
-63 -104 l-46 -85 0 888 c0 776 -2 892 -15 924 -20 48 -41 71 -87 94 -36 18
-87 19 -1650 18 -1536 0 -1616 -1 -1683 -19z m3075 -520 l0 -180 -1481 0
c-1111 0 -1492 3 -1521 12 -80 24 -129 115 -113 209 8 47 76 124 116 132 13 2
693 5 1512 6 l1487 1 0 -180z m-3036 -531 c27 -5 73 -9 102 -9 l54 0 0 -1680
0 -1680 -50 0 c-84 0 -155 47 -179 119 -8 25 -11 469 -11 1654 0 1538 1 1619
18 1612 9 -3 39 -11 66 -16z m1596 -414 c0 -429 2 -447 48 -498 31 -34 85 -55
138 -53 43 1 72 14 219 98 94 53 178 100 188 103 10 4 29 0 45 -11 47 -31 265
-154 273 -154 4 0 9 -4 11 -9 5 -17 92 -34 130 -27 52 10 98 45 125 95 23 44
23 44 23 453 l0 408 120 0 120 0 0 -762 0 -762 -93 -175 c-52 -97 -97 -183
-100 -191 -4 -8 -18 -33 -30 -55 -13 -22 -51 -94 -86 -160 -35 -66 -78 -147
-96 -180 -18 -33 -56 -105 -85 -160 -29 -55 -65 -122 -80 -150 -15 -27 -48
-88 -72 -135 -103 -194 -175 -330 -215 -405 -24 -44 -60 -113 -80 -152 l-37
-73 -773 0 -773 0 0 1680 0 1680 540 0 540 0 0 -405z m840 170 l0 -234 -87 51
c-146 85 -173 82 -375 -42 -17 -10 -18 3 -18 225 l0 235 240 0 240 0 0 -235z
m1402 -864 l97 -54 -56 -106 c-31 -58 -63 -118 -70 -133 -8 -16 -18 -28 -23
-28 -9 0 -53 23 -103 54 -12 7 -43 25 -70 40 l-47 27 53 102 c30 56 62 116 71
134 19 38 13 39 148 -36z m-326 -583 l112 -63 -95 -185 c-53 -102 -119 -230
-148 -285 -29 -55 -90 -172 -136 -260 -45 -88 -104 -200 -130 -250 -26 -49
-66 -126 -88 -170 -22 -44 -72 -141 -112 -215 -63 -121 -201 -387 -321 -619
-24 -46 -52 -87 -63 -92 -37 -15 -176 -69 -179 -69 -2 0 -9 51 -16 113 -7 61
-14 119 -15 127 -1 8 1 20 5 25 4 6 33 60 65 120 32 61 74 142 95 180 21 39
75 140 120 225 45 85 99 187 120 225 20 39 61 115 90 170 29 55 67 127 85 160
18 33 56 105 85 160 29 55 65 123 80 150 15 28 74 138 131 245 56 107 118 222
136 255 19 33 39 72 44 88 6 15 13 27 16 27 3 0 56 -28 119 -62z"/>
</g>
</svg>
